<svg width="640" height="800" viewBox="0 0 640 800" fill="none" xmlns="http://www.w3.org/2000/svg">
<g clip-path="url(#clip0_20793_5223)">
<g clip-path="url(#clip1_20793_5223)">
<rect width="640" height="800" rx="16" fill="#9757D7"/>
<rect y="-87" width="640" height="973.678"/>
</g>
<g filter="url(#filter0_d_20793_5223)">
<rect x="8" y="752" width="624" height="40" rx="20" fill="#FCFCFD"/>
<path d="M31.7002 764.386C31.7002 762.035 34.2807 760.598 36.2793 761.835L48.5797 769.449C50.4743 770.622 50.4743 773.378 48.5797 774.551L36.2793 782.166C34.2807 783.403 31.7002 781.965 31.7002 779.615V764.386Z" fill="#141416"/>
<rect x="76" y="768" width="383" height="8" rx="4" fill="#E6E8EC"/>
<rect x="76" y="768" width="40" height="8" rx="4" fill="#3772FF"/>
<path d="M484.968 775.52C485.992 774.635 486.797 773.909 487.384 773.344C487.981 772.768 488.477 772.171 488.872 771.552C489.267 770.933 489.464 770.315 489.464 769.696C489.464 769.056 489.309 768.555 489 768.192C488.701 767.829 488.227 767.648 487.576 767.648C486.947 767.648 486.456 767.851 486.104 768.256C485.763 768.651 485.581 769.184 485.56 769.856H483.8C483.832 768.64 484.195 767.712 484.888 767.072C485.592 766.421 486.483 766.096 487.56 766.096C488.723 766.096 489.629 766.416 490.28 767.056C490.941 767.696 491.272 768.549 491.272 769.616C491.272 770.384 491.075 771.125 490.68 771.84C490.296 772.544 489.832 773.179 489.288 773.744C488.755 774.299 488.072 774.944 487.24 775.68L486.52 776.32H491.592V777.84H483.816V776.512L484.968 775.52ZM494.17 778.112C493.84 778.112 493.562 778 493.338 777.776C493.114 777.552 493.002 777.275 493.002 776.944C493.002 776.613 493.114 776.336 493.338 776.112C493.562 775.888 493.84 775.776 494.17 775.776C494.49 775.776 494.762 775.888 494.986 776.112C495.21 776.336 495.322 776.613 495.322 776.944C495.322 777.275 495.21 777.552 494.986 777.776C494.762 778 494.49 778.112 494.17 778.112ZM494.17 771.392C493.84 771.392 493.562 771.28 493.338 771.056C493.114 770.832 493.002 770.555 493.002 770.224C493.002 769.893 493.114 769.616 493.338 769.392C493.562 769.168 493.84 769.056 494.17 769.056C494.49 769.056 494.762 769.168 494.986 769.392C495.21 769.616 495.322 769.893 495.322 770.224C495.322 770.555 495.21 770.832 494.986 771.056C494.762 771.28 494.49 771.392 494.17 771.392ZM498.124 775.52C499.148 774.635 499.954 773.909 500.54 773.344C501.138 772.768 501.634 772.171 502.028 771.552C502.423 770.933 502.62 770.315 502.62 769.696C502.62 769.056 502.466 768.555 502.156 768.192C501.858 767.829 501.383 767.648 500.732 767.648C500.103 767.648 499.612 767.851 499.26 768.256C498.919 768.651 498.738 769.184 498.716 769.856H496.956C496.988 768.64 497.351 767.712 498.044 767.072C498.748 766.421 499.639 766.096 500.716 766.096C501.879 766.096 502.786 766.416 503.436 767.056C504.098 767.696 504.428 768.549 504.428 769.616C504.428 770.384 504.231 771.125 503.836 771.84C503.452 772.544 502.988 773.179 502.444 773.744C501.911 774.299 501.228 774.944 500.396 775.68L499.676 776.32H504.748V777.84H496.972V776.512L498.124 775.52ZM506.351 772.016C506.351 770.171 506.66 768.731 507.279 767.696C507.908 766.651 508.985 766.128 510.511 766.128C512.036 766.128 513.108 766.651 513.727 767.696C514.356 768.731 514.671 770.171 514.671 772.016C514.671 773.883 514.356 775.344 513.727 776.4C513.108 777.445 512.036 777.968 510.511 777.968C508.985 777.968 507.908 777.445 507.279 776.4C506.66 775.344 506.351 773.883 506.351 772.016ZM512.879 772.016C512.879 771.152 512.82 770.421 512.703 769.824C512.596 769.227 512.372 768.741 512.031 768.368C511.689 767.984 511.183 767.792 510.511 767.792C509.839 767.792 509.332 767.984 508.991 768.368C508.649 768.741 508.42 769.227 508.303 769.824C508.196 770.421 508.143 771.152 508.143 772.016C508.143 772.912 508.196 773.664 508.303 774.272C508.409 774.88 508.633 775.371 508.975 775.744C509.327 776.117 509.839 776.304 510.511 776.304C511.183 776.304 511.689 776.117 512.031 775.744C512.383 775.371 512.612 774.88 512.719 774.272C512.825 773.664 512.879 772.912 512.879 772.016Z" fill="#23262F"/>
<path d="M556 764C555.448 764 555 764.448 555 765C555 765.552 555.448 766 556 766C559.314 766 562 768.686 562 772C562 775.314 559.314 778 556 778C555.448 778 555 778.448 555 779C555 779.552 555.448 780 556 780C560.418 780 564 776.418 564 772C564 767.582 560.418 764 556 764Z" fill="#777E91"/>
<path d="M556 768C555.448 768 555 768.448 555 769C555 769.552 555.448 770 556 770C557.105 770 558 770.895 558 772C558 773.105 557.105 774 556 774C555.448 774 555 774.448 555 775C555 775.552 555.448 776 556 776C558.209 776 560 774.209 560 772C560 769.791 558.209 768 556 768Z" fill="#777E91"/>
<path d="M545 769L549.632 764.657C550.909 763.46 553 764.365 553 766.116V777.883C553 779.634 550.909 780.54 549.632 779.342L545 775H542C540.895 775 540 774.104 540 773V771C540 769.895 540.895 769 542 769H545Z" fill="#777E91"/>
<path fill-rule="evenodd" clip-rule="evenodd" d="M590.369 766.542C590.659 764.345 592.345 762.659 594.542 762.369C596.052 762.17 597.941 762 600 762C602.059 762 603.948 762.17 605.458 762.369C607.655 762.659 609.341 764.345 609.631 766.542C609.83 768.052 610 769.941 610 772C610 774.059 609.83 775.948 609.631 777.458C609.341 779.655 607.655 781.341 605.458 781.631C603.948 781.83 602.059 782 600 782C597.941 782 596.052 781.83 594.542 781.631C592.345 781.341 590.659 779.655 590.369 777.458C590.17 775.948 590 774.059 590 772C590 769.941 590.17 768.052 590.369 766.542ZM593 774C593.552 774 594 774.448 594 775V777C594 777.552 594.448 778 595 778H597C597.552 778 598 778.448 598 779C598 779.552 597.552 780 597 780H595C593.343 780 592 778.657 592 777V775C592 774.448 592.448 774 593 774ZM606 775C606 774.448 606.448 774 607 774C607.552 774 608 774.448 608 775V777C608 778.657 606.657 780 605 780H603C602.448 780 602 779.552 602 779C602 778.448 602.448 778 603 778H605C605.552 778 606 777.552 606 777V775ZM593 770C593.552 770 594 769.552 594 769V767C594 766.448 594.448 766 595 766H597C597.552 766 598 765.552 598 765C598 764.448 597.552 764 597 764H595C593.343 764 592 765.343 592 767V769C592 769.552 592.448 770 593 770ZM606 769C606 769.552 606.448 770 607 770C607.552 770 608 769.552 608 769V767C608 765.343 606.657 764 605 764H603C602.448 764 602 764.448 602 765C602 765.552 602.448 766 603 766H605C605.552 766 606 766.448 606 767V769Z" fill="#777E91"/>
</g>
</g>
<defs>
<filter id="filter0_d_20793_5223" x="0" y="752" width="640" height="56" filterUnits="userSpaceOnUse" color-interpolation-filters="sRGB">
<feFlood flood-opacity="0" result="BackgroundImageFix"/>
<feColorMatrix in="SourceAlpha" type="matrix" values="0 0 0 0 0 0 0 0 0 0 0 0 0 0 0 0 0 0 127 0" result="hardAlpha"/>
<feMorphology radius="8" operator="erode" in="SourceAlpha" result="effect1_dropShadow_20793_5223"/>
<feOffset dy="8"/>
<feGaussianBlur stdDeviation="8"/>
<feColorMatrix type="matrix" values="0 0 0 0 0.0583333 0 0 0 0 0.0583333 0 0 0 0 0.0583333 0 0 0 0.2 0"/>
<feBlend mode="multiply" in2="BackgroundImageFix" result="effect1_dropShadow_20793_5223"/>
<feBlend mode="normal" in="SourceGraphic" in2="effect1_dropShadow_20793_5223" result="shape"/>
</filter>
<clipPath id="clip0_20793_5223">
<rect width="640" height="800" fill="white"/>
</clipPath>
<clipPath id="clip1_20793_5223">
<rect width="640" height="800" rx="16" fill="white"/>
</clipPath>
</defs>
</svg>
